<svg viewBox="0 0 1920 1080" xmlns="http://www.w3.org/2000/svg"><g fill="none" fill-rule="evenodd"><path d="m0 0h1920v1080h-1920z" fill="#ade0f9"/><g transform="translate(547 233)"><path d="m488.56568 0c50.97014 0 92.438181 41.3124891 92.438181 92.0945995v28.6937125h-24.087236v-28.6937125c0-37.5493274-30.663413-68.0977182-68.350945-68.0977182-37.687533 0-68.350946 30.5483908-68.350946 68.0977182l-.000804 153.5689435 27.239521.002235c10.939984 0 21.224868 2.799496 30.170618 7.719743l42.129211-41.971161 16.113224 16.052781-40.557784 40.405482c9.140099 10.825264 14.647009 24.798669 14.647009 40.060979v32.102396h-203.57558v-32.102396c0-15.367487 5.583071-29.428243 14.839034-40.284329l-40.336812-40.182132 16.113224-16.052781 41.986126 41.828593c8.888869-4.831722 19.086448-7.577175 29.929298-7.577175l27.210784-.002235.002518-153.5689435c0-50.7821104 41.468041-92.0945995 92.441359-92.0945995z" fill="#adada9"/><path d="m545.676763 110.214112c0-3.326394 2.703539-6.022957 6.042458-6.022957h33.478144c.905416 0 1.756824.212053 2.52881.569696 2.071337.952659 3.513649 3.028886 3.513649 5.453261v33.352564c0 3.326394-2.70354 6.019792-6.042459 6.019792h-33.478144c-3.338919 0-6.042458-2.693398-6.042458-6.019792z" fill="#939490"/><path d="m486.526111 188.003c-5.867729.10761-1.02296 10.846388 12.253293 26.845364-10.337623 9.596221-14.245207 25.9022-3.300796 36.802392 10.944411 10.903357 27.311786 7.010432 36.940962-3.28525 16.062393 13.226453 26.838429 18.049884 26.94962 12.204165.09213-5.041814-7.948597-16.93581-19.016907-29.488123.594079-6.877502-1.747294-13.504971-6.207658-17.951768-4.46354-4.443633-11.112786-6.776223-18.019361-6.181207-12.599575-11.029957-24.535178-19.040522-29.599153-18.945573" fill="#af2a30"/><path d="m330.222764 188.003c5.867729.10761 1.02296 10.846388-12.250116 26.845364 10.334446 9.596221 14.24203 25.9022 3.297619 36.802392-10.944411 10.903357-27.308609 7.010432-36.940962-3.28525-16.062393 13.226453-26.838429 18.049884-26.946443 12.204165-.095307-5.041814 7.94542-16.93581 19.01373-29.488123-.594079-6.877502 1.747294-13.504971 6.207658-17.951768 4.46354-4.443633 11.115963-6.776223 18.019361-6.181207 12.599575-11.029957 24.535178-19.040522 29.599153-18.945573" fill="#1f67a3"/><path d="m787.09872 615h-748.1974403c-35.53995023 0-48.80667342-37.514513-31.0795864-80.241748l60.6437929-146.298054c11.8657114-28.598762 42.1447198-50.389652 68.3922458-50.389652h552.284536c26.218934 0 56.526534 21.79089 68.363654 50.389652l60.672385 146.298054c17.727087 42.727235 4.460364 80.241748-31.079587 80.241748" fill="#939490"/><path d="m38.9012797 586.515176c-5.4324944 0-6.6905457-1.851513-7.4339397-2.990906-3.8599302-5.72545-4.6319163-20.024831 2.7734314-37.884815l60.6723849-146.326539c7.9771887-19.284225 28.5062997-32.757547 41.9445757-32.757547h552.284536c13.409684 0 33.938794 13.473322 41.944576 32.757547l60.643793 146.326539c7.405347 17.859984 6.633361 32.159365 2.802023 37.884815-.771986 1.139393-2.001445 2.990906-7.43394 2.990906z" fill="#c7c7c2"/><path d="m100.259874 355.303864c3.402458-8.97272 13.438276-14.043018 24.932291-13.729685-2.516103 17.66059-.571842 34.808454 5.175165 49.506623-2.973576-.398787-6.032928-1.167878-9.063688-2.30727-16.297483-6.152722-25.7328679-21.164224-21.043768-33.469668m-8.9207272-3.361209c-6.5475853 17.204833 5.3753103 37.713906 26.5906302 45.718141 5.689823 2.164847 11.494015 3.161816 17.040878 3.190301 7.691268 13.815139 19.271059 24.582402 34.02457 30.165428 39.028183 14.726654 85.518899-12.333929 103.817827-60.473281.54325-1.395756 1.029315-2.763027 1.486788-4.130299l-141.159078-53.295105c-.54325 1.338787-1.115091 2.677574-1.629749 4.044845-1.887077 4.984844-3.402457 9.998173-4.54614 15.011502-16.097338-.883029-30.5935208 6.55151-35.6257262 19.768468" fill="#a82f2a"/><path d="m583.10379 376.053475 171.844729-171.076685c10.858635-10.811573 28.458647-10.805243 39.310928.015825 10.852281 10.817903 10.845927 28.351894-.012708 39.163467l-171.844729 171.076686z" fill="#5f605d"/><path d="m672.129983 521.940082c-54.181983 53.950255-142.01684 53.92177-196.170232-.05697-54.153392-54.007226-54.1248-141.512603.057184-195.462859 54.210576-53.950256 142.045433-53.921771 196.198825.085454 54.153391 53.978741 54.124799 141.484119-.085777 195.434375" fill="#2d2e2c"/><path d="m573.547683 524.908833 112.07776-49.455983c.629026 1.310301 1.258051 2.620603 1.858485 3.95939 2.172998 4.870905 3.945707 9.798779 5.37531 14.726654l.949893-.091785c1.359712-.120269 2.706716-.180404 4.04419-.180404 14.019648 0 26.492147 6.53252 31.660959 18.103688 7.462531 16.806046-3.345273 37.9133-24.074528 47.085414-5.575455 2.449694-11.29387 3.759996-16.840733 4.101814-4.457187 9.153123-10.594953 17.135204-18.251275 23.357555h-82.885251c-.946715-.629831-1.890254-1.278652-2.821085-1.949627.31769-3.418179.482889-6.880668.482889-10.384301 0-4.11764-.228737-8.181474-.667149-12.185175-1.204044-10.953997-4.009244-21.433247-8.18051-31.187716-.851409-2.000268-1.763178-3.965721-2.728955-5.899524zm124.464483-21.600991c-.953069 0-1.922023.041145-2.894154.117104 3.488234 17.518167 2.487511 34.751485-2.458918 49.734502 2.973576-.569696 5.975744-1.481211 8.920727-2.791513 15.925787-7.035751 24.560594-22.531495 19.213875-34.552091-3.58354-8.054875-12.507444-12.508002-22.78153-12.508002z" fill="#1f67a3"/><path d="m481.099971 586.515176c9.822966-12.957429 16.859794-28.130345 20.211421-44.632553 1.448665-7.133866 2.21112-14.52093 2.21112-22.078903 0-4.907302-.321065-9.741909-.944041-14.482617l-.336249-2.389894c-.565487-3.680872-1.312058-7.304774-2.233358-10.859047-2.541518-9.833595-6.407802-19.135472-11.392354-27.712569 37.319013 4.89939 68.805242 28.244285 84.931173 60.54924.643851 1.289202 1.263699 2.592471 1.857661 3.910744l.871294 1.98878c3.910562 9.144815 6.62048 18.926644 7.936046 29.139466l.244464 2.04825c.438412 4.003701.667149 8.067535.667149 12.185175 0 3.503633-.165199 6.966122-.482889 10.384301l-.200144 1.949627z" fill="#fffffe"/><path d="m366.093111 404.598433-2.786139 8.244774c-5.234335 1.406834-10.315435 3.186839-15.213503 5.30821l-2.08788.929967c-2.944983 1.345116-5.813722 2.813667-8.612568 4.402487-33.586159 19.062677-56.231083 55.054834-56.231083 96.319849 0 9.092988 1.102384 17.932779 3.176898 26.389606.576606 2.352372 1.228268 4.672698 1.953643 6.962314l.749896 2.279429c2.79567 8.203629 6.534878 15.979986 11.084195 23.196141-7.049535 1.395757-14.337338 2.130032-21.796693 2.130032-7.703975 0-15.223691-.78175-22.486079-2.266126 1.912492-7.899791 2.97993-16.12874 3.091121-24.588733l.009531-1.48754c0-2.813668-.104838-5.602016-.314513-8.361878-2.824261-37.742392-24.633662-70.215091-55.941985-87.973795-2.862384-1.62047-5.797837-3.120671-8.809536-4.487943-7.472062-3.399189-15.392067-6.000803-23.645647-7.687737.984839-4.057505 2.188883-8.02639 3.605779-11.897161 13.625712-37.210675 46.713098-65.094152 86.989802-71.439938 5.702531-.895689 11.544845-1.364106 17.501527-1.364106 14.057771 0 27.511931 2.604779 39.895477 7.349084 20.077991 7.694067 37.350782 21.0218 49.867757 38.043064z" fill="#fffffe"/><path d="m39.9496559 586.515176c-3.4850564-10.741943-5.3657796-22.199172-5.3657796-34.096333 0-2.813668.1048376-5.602016.3113359-8.361878l26.4031936-63.676241c20.389327-23.712033 50.6619812-38.73936 84.4514612-38.73936 7.703976 0 15.223692.78175 22.482902 2.266126 8.25358 1.686934 16.173585 4.288548 23.645647 7.687737 3.011699 1.367272 5.947152 2.867473 8.809536 4.487943 31.308323 17.758704 53.117724 50.231403 55.941985 87.973795.209675 2.759862.314513 5.54821.314513 8.361878l-.009531 1.48754c-.111191 8.459993-1.178629 16.688942-3.091121 24.588733-.657617 2.715553-1.410542 5.386797-2.265127 8.02006z" fill="#f1d377"/><path d="m379.06756 366.159747 4.711338-13.989214 3.974299-11.735747c.273213-.816565.59408-1.604645.949892-2.36424 3.662963-7.779522 11.532138-12.568138 19.909616-12.568138 2.328666 0 4.692277.370303 7.017766 1.145723l36.540673 12.248474c3.087366 1.030058 5.791405 2.680033 8.023802 4.759693l.655481.636599c5.626286 5.703295 7.910475 14.280392 5.187874 22.376411l-19.102684 56.60884c-3.682024-2.073062-7.491124-3.940401-11.420946-5.592521-13.2699-5.576695-27.851858-8.659386-43.15815-8.659386-10.048526 0-19.788893 1.329292-29.049549 3.816966z" fill="#a82f2a"/><path d="m303.587656 586.515176c-1.931553-2.544644-3.755092-5.174742-5.461086-7.883966-4.549317-7.216155-8.288525-14.992512-11.084195-23.196141-1.032491-3.025721-1.93473-6.105247-2.703539-9.241743-2.074514-8.456827-3.176898-17.296618-3.176898-26.389606 0-41.265015 22.644924-77.257172 56.231083-96.319849 2.798846-1.58882 5.667585-3.057371 8.612568-4.402487 5.537332-2.53515 11.319286-4.630367 17.301383-6.238177 9.260656-2.487674 19.001023-3.816966 29.049549-3.816966 14.668529 0 28.671829 2.831152 41.492622 7.975332l1.665528.684054c3.929822 1.65212 7.738922 3.519459 11.420946 5.592521 7.637261 4.298043 14.712212 9.463291 21.088245 15.37231 8.075672 7.478848 15.029901 16.1414 20.592648 25.709135 4.984552 8.577097 8.850836 17.878974 11.392354 27.712569.73704 2.843418 1.362253 5.731399 1.872387 8.657462l.387578 2.384759.024224.180799c.810109 5.386797 1.229459 10.900192 1.229459 16.508538 0 7.557973-.762455 14.945037-2.21112 22.078903-3.351627 16.502208-10.388455 31.675124-20.211421 44.632553z" fill="#f1d377"/></g></g></svg>
