<svg xmlns="http://www.w3.org/2000/svg" viewBox="0 0 1920 1080"><g fill="none" fill-rule="evenodd"><path fill="#ade0f9" d="M0 0h1920v1080H0z"/><path fill="#adada9" d="M1035.6 233c51 0 92.4 41.3 92.4 92v28.8h-24V325a68.3 68.3 0 0 0-136.8 0v153.6h27.3c10.9 0 21.2 2.8 30.1 7.7l42.2-42 16 16-40.5 40.5a61.9 61.9 0 0 1 14.7 40V573H853.4v-32c0-15.4 5.6-29.5 14.8-40.4L828 460.5l16.1-16 42 41.7c8.9-4.8 19-7.5 30-7.5H943V325a92.4 92.4 0 0 1 92.5-92.1z"/><path fill="#939490" d="M1092.7 343.2a6 6 0 0 1 6-6h33.5c.9 0 1.8.2 2.5.6a6 6 0 0 1 3.5 5.4v33.4a6 6 0 0 1-6 6h-33.5a6 6 0 0 1-6-6z"/><path fill="#af2a30" d="M1033.5 421c-5.8.1-1 10.8 12.3 26.8-10.4 9.6-14.3 26-3.3 36.9 11 10.9 27.3 7 37-3.3 16 13.2 26.8 18 26.9 12.2 0-5-8-17-19-29.5a23 23 0 0 0-6.3-18 22.8 22.8 0 0 0-18-6.2c-12.6-11-24.5-19-29.6-18.9"/><path fill="#1f67a3" d="M877.2 421c5.9.1 1 10.8-12.2 26.8 10.3 9.6 14.2 26 3.3 36.9-11 10.9-27.3 7-37-3.3-16 13.2-26.8 18-27 12.2 0-5 8-17 19.1-29.5a22.6 22.6 0 0 1 6.2-18 22.8 22.8 0 0 1 18-6.2c12.6-11 24.6-19 29.6-18.9"/><path fill="#939490" d="M1334.1 848H585.9c-35.5 0-48.8-37.5-31-80.2l60.6-146.3c11.8-28.6 42.1-50.4 68.4-50.4H1236c26.3 0 56.6 21.8 68.4 50.4l60.7 146.3c17.7 42.7 4.4 80.2-31.1 80.2"/><path fill="#c7c7c2" d="M585.9 819.5c-5.4 0-6.7-1.8-7.4-3-3.9-5.7-4.7-20 2.7-37.9L642 632.3c8-19.3 28.5-32.7 42-32.7h552c13.5 0 34 13.4 42 32.7l60.6 146.3c7.4 17.9 6.7 32.2 2.8 38-.7 1-2 3-7.4 3z"/><path fill="#a82f2a" d="M647.3 588.3c3.4-9 13.4-14 24.9-13.7a98.4 98.4 0 0 0 5.2 49.5c-3-.4-6-1.2-9.1-2.3-16.3-6.2-25.7-21.2-21-33.5m-9-3.4c-6.5 17.2 5.4 37.8 26.6 45.8a48.7 48.7 0 0 0 17 3.2A65.6 65.6 0 0 0 716 664c39 14.7 85.5-12.3 103.8-60.5l1.5-4L680.1 546l-1.6 4c-1.9 5-3.4 10-4.5 15-16.1-.8-30.6 6.6-35.7 19.8"/><path fill="#5f605d" d="m1130.1 609 171.8-171a27.9 27.9 0 0 1 39.4 0 27.6 27.6 0 0 1 0 39.2l-171.9 171z"/><path fill="#2d2e2c" d="M1219.1 755a139 139 0 0 1-196.1-.1 137.9 137.9 0 0 1 0-195.5 139 139 0 0 1 196.2.1 137.8 137.8 0 0 1 0 195.4"/><path fill="#1f67a3" d="m1120.5 758 112.1-49.5 1.9 4c2.2 4.8 4 9.7 5.4 14.6h1c1.3-.2 2.6-.2 4-.2 14 0 26.4 6.5 31.6 18 7.5 16.9-3.3 38-24 47.2a49.4 49.4 0 0 1-16.9 4 68.5 68.5 0 0 1-18.3 23.4h-82.8l-2.9-2a112.2 112.2 0 0 0-11-59.6zm124.5-21.7-2.9.1a98.2 98.2 0 0 1-2.4 49.8c3-.6 6-1.5 8.9-2.8 16-7 24.5-22.6 19.2-34.6-3.6-8-12.5-12.5-22.8-12.5z"/><path fill="#fffffe" d="M1028.1 819.5a110.1 110.1 0 0 0 21.5-81.2l-.4-2.4a109.6 109.6 0 0 0-13.6-38.5 111.2 111.2 0 0 1 86.8 64.4l.9 2c3.9 9.2 6.6 19 8 29.1l.2 2.1a111.9 111.9 0 0 1 .1 22.6l-.2 2zM913 637.6l-2.7 8.2c-5.2 1.5-10.3 3.2-15.2 5.4l-2 .9a110.7 110.7 0 0 0-59.7 134l.6 2.3a110 110 0 0 0 11.1 23.2 112.1 112.1 0 0 1-44.3-.1c2-7.9 3-16.1 3.1-24.6v-1.5A110.4 110.4 0 0 0 715.2 677a111.2 111.2 0 0 1 197.9-39.3z"/><path fill="#f1d377" d="M587 819.5a110.3 110.3 0 0 1-5.1-42.4l26.4-63.7A111 111 0 0 1 747.7 689a110.7 110.7 0 0 1 56.2 96.3v1.5a110.6 110.6 0 0 1-5.3 32.6z"/><path fill="#a82f2a" d="m926 599.2 4.8-14 4-11.8a22 22 0 0 1 27.9-13.8l36.5 12.3c3 1 5.8 2.7 8 4.8l.7.6a21.8 21.8 0 0 1 5.1 22.4l-19 56.6a110.8 110.8 0 0 0-83.7-10.5z"/><path fill="#f1d377" d="M850.6 819.5a109.9 109.9 0 0 1-22.4-66.7A110.7 110.7 0 0 1 939.4 642c14.6 0 28.6 2.9 41.4 8l1.7.7a110.8 110.8 0 0 1 66.4 83l.4 2.4v.2a111 111 0 0 1-21.2 83.2z"/></g></svg>